<svg xmlns="http://www.w3.org/2000/svg" version="1.1" xmlns:xlink="http://www.w3.org/1999/xlink" width="512" height="512" x="0" y="0" viewBox="0 0 24 24" style="enable-background:new 0 0 512 512" xml:space="preserve" class=""><g><path d="M5.318 15.682a4.5 4.5 0 0 1 0-6.364.5.5 0 0 1 .707.707 3.5 3.5 0 0 0 0 4.95.5.5 0 0 1-.707.707zm13.657-6.364a.5.5 0 0 0 0 .707 3.5 3.5 0 0 1 0 4.95.5.5 0 1 0 .707.707 4.5 4.5 0 0 0 0-6.364.5.5 0 0 0-.707 0zM14 6.5v.092a1.483 1.483 0 0 1 .5-.092A1.5 1.5 0 0 1 16 8v3.092a1.483 1.483 0 0 1 .5-.092 1.5 1.5 0 0 1 1.5 1.5v1.578a8.47 8.47 0 0 1-1.428 4.715l-.656.984A.5.5 0 0 1 15.5 20h-6a.5.5 0 0 1-.416-.223l-.656-.984A8.47 8.47 0 0 1 7 14.078V10.5A1.5 1.5 0 0 1 8.5 9a1.483 1.483 0 0 1 .5.092V7.5A1.5 1.5 0 0 1 10.5 6a1.484 1.484 0 0 1 .558.11A1.5 1.5 0 0 1 14 6.5zM14 8v4.5a.5.5 0 0 1-1 0v-6a.5.5 0 0 0-1 0v6a.5.5 0 0 1-1 0v-5a.5.5 0 0 0-1 0v5a.5.5 0 0 1-1 0v-2a.5.5 0 0 0-1 0v3.578a7.478 7.478 0 0 0 1.26 4.16l.508.762h5.464l.508-.762a7.478 7.478 0 0 0 1.26-4.16V12.5a.5.5 0 0 0-1 0v2a.5.5 0 0 1-1 0V8a.5.5 0 0 0-1 0z" fill="#ffffff" opacity="1" data-original="#000000" class=""></path></g></svg>